<svg width="512" height="512" viewBox="0 0 512 512" fill="none" xmlns="http://www.w3.org/2000/svg">
<g clip-path="url(#clip0_104_45)">
<mask id="mask0_104_45" style="mask-type:alpha" maskUnits="userSpaceOnUse" x="60" y="29" width="391" height="454">
<path d="M451 352.916V157.054C451 144.549 444.328 132.993 433.497 126.742L272.997 34.0994C262.169 27.8497 248.831 27.8497 238.003 34.0994L77.5031 126.742C66.6723 132.993 60 144.549 60 157.055V352.916C60 365.316 66.5604 376.789 77.246 383.079L237.746 477.55C248.703 484 262.297 484 273.254 477.55L433.754 383.079C444.44 376.789 451 365.316 451 352.916Z" fill="white"/>
</mask>
<g mask="url(#mask0_104_45)">
<g opacity="0.5">
<g filter="url(#filter0_f_104_45)">
<circle cx="434.5" cy="439.5" r="95.5" fill="#FF5555"/>
</g>
<g filter="url(#filter1_f_104_45)">
<circle cx="17.5" cy="435.5" r="95.5" fill="#77FF55"/>
</g>
<g filter="url(#filter2_f_104_45)">
<circle cx="289.5" cy="6.5" r="95.5" fill="#77FF55"/>
</g>
<g filter="url(#filter3_f_104_45)">
<circle cx="213.5" cy="513.5" r="95.5" fill="#FCFF55"/>
</g>
<g filter="url(#filter4_f_104_45)">
<circle cx="116.5" cy="119.5" r="95.5" fill="#5585FF"/>
</g>
</g>
</g>
<g filter="url(#filter5_dd_104_45)">
<path d="M451 352.916V157.054C451 144.549 444.328 132.993 433.497 126.742L272.997 34.0994C262.169 27.8497 248.831 27.8497 238.003 34.0994L77.5031 126.742C66.6723 132.993 60 144.549 60 157.055V352.916C60 365.316 66.5604 376.789 77.246 383.079L237.746 477.55C248.703 484 262.297 484 273.254 477.55L433.754 383.079C444.44 376.789 451 365.316 451 352.916Z" fill="white"/>
</g>
<mask id="mask1_104_45" style="mask-type:alpha" maskUnits="userSpaceOnUse" x="60" y="29" width="391" height="454">
<path d="M451 352.916V157.054C451 144.549 444.328 132.993 433.497 126.742L272.997 34.0994C262.169 27.8497 248.831 27.8497 238.003 34.0994L77.5031 126.742C66.6723 132.993 60 144.549 60 157.055V352.916C60 365.316 66.5604 376.789 77.246 383.079L237.746 477.55C248.703 484 262.297 484 273.254 477.55L433.754 383.079C444.44 376.789 451 365.316 451 352.916Z" fill="white"/>
</mask>
<g mask="url(#mask1_104_45)">
<g opacity="0.5">
<g filter="url(#filter6_f_104_45)">
<circle cx="434.5" cy="439.5" r="95.5" fill="#FF5555"/>
</g>
<g filter="url(#filter7_f_104_45)">
<circle cx="17.5" cy="435.5" r="95.5" fill="#77FF55"/>
</g>
<g filter="url(#filter8_f_104_45)">
<circle cx="289.5" cy="6.5" r="95.5" fill="#77FF55"/>
</g>
<g filter="url(#filter9_f_104_45)">
<circle cx="213.5" cy="513.5" r="95.5" fill="#FCFF55"/>
</g>
<g filter="url(#filter10_f_104_45)">
<circle cx="116.5" cy="119.5" r="95.5" fill="#5585FF"/>
</g>
</g>
</g>
<g filter="url(#filter11_di_104_45)">
<path d="M161.104 198.415L255.5 254.027M161.104 198.415V312.509L255.5 368.121M161.104 198.415L255.5 143.879L349.896 198.415M255.5 254.027L349.896 198.415M255.5 254.027V368.121M349.896 198.415V312.509L255.5 368.121" stroke="#181818" stroke-width="16" stroke-linejoin="round" shape-rendering="crispEdges"/>
</g>
<g filter="url(#filter12_di_104_45)">
<path d="M100 160.984L255.5 252.744M100 160.984V349.24L255.5 441M100 160.984L255.5 71L411 160.984M255.5 252.744L411 160.984M255.5 252.744V441M411 160.984V349.24L255.5 441" stroke="#181818" stroke-width="24" stroke-linejoin="round" shape-rendering="crispEdges"/>
</g>
<mask id="mask2_104_45" style="mask-type:alpha" maskUnits="userSpaceOnUse" x="60" y="29" width="391" height="454">
<path d="M451 352.916V157.054C451 144.549 444.328 132.993 433.497 126.742L272.997 34.0994C262.169 27.8497 248.831 27.8497 238.003 34.0994L77.5031 126.742C66.6723 132.993 60 144.549 60 157.055V352.916C60 365.316 66.5604 376.789 77.246 383.079L237.746 477.55C248.703 484 262.297 484 273.254 477.55L433.754 383.079C444.44 376.789 451 365.316 451 352.916Z" fill="white"/>
</mask>
<g mask="url(#mask2_104_45)">
<rect x="115.612" y="-86" width="594.123" height="155" transform="rotate(36.691 115.612 -86)" fill="url(#paint0_linear_104_45)" fill-opacity="0.1"/>
<rect x="44.7877" y="24" width="594.123" height="155" transform="rotate(24.7075 44.7877 24)" fill="url(#paint1_linear_104_45)" fill-opacity="0.1"/>
<g filter="url(#filter13_f_104_45)">
<circle cx="264.5" cy="152.5" r="128.5" fill="white"/>
</g>
</g>
<path d="M451 352.916V157.054C451 144.549 444.328 132.993 433.497 126.742L272.997 34.0994C262.169 27.8497 248.831 27.8497 238.003 34.0994L77.5031 126.742C66.6723 132.993 60 144.549 60 157.055V352.916C60 365.316 66.5604 376.789 77.246 383.079L237.746 477.55C248.703 484 262.297 484 273.254 477.55L433.754 383.079C444.44 376.789 451 365.316 451 352.916Z" fill="url(#paint2_radial_104_45)" style="mix-blend-mode:overlay"/>
<path d="M451 352.916V157.054C451 144.549 444.328 132.993 433.497 126.742L272.997 34.0994C262.169 27.8497 248.831 27.8497 238.003 34.0994L77.5031 126.742C66.6723 132.993 60 144.549 60 157.055V352.916C60 365.316 66.5604 376.789 77.246 383.079L237.746 477.55C248.703 484 262.297 484 273.254 477.55L433.754 383.079C444.44 376.789 451 365.316 451 352.916Z" stroke="url(#paint3_linear_104_45)" stroke-width="2" stroke-linejoin="round" style="mix-blend-mode:overlay"/>
</g>
<defs>
<filter id="filter0_f_104_45" x="139" y="144" width="591" height="591" filterUnits="userSpaceOnUse" color-interpolation-filters="sRGB">
<feFlood flood-opacity="0" result="BackgroundImageFix"/>
<feBlend mode="normal" in="SourceGraphic" in2="BackgroundImageFix" result="shape"/>
<feGaussianBlur stdDeviation="100" result="effect1_foregroundBlur_104_45"/>
</filter>
<filter id="filter1_f_104_45" x="-278" y="140" width="591" height="591" filterUnits="userSpaceOnUse" color-interpolation-filters="sRGB">
<feFlood flood-opacity="0" result="BackgroundImageFix"/>
<feBlend mode="normal" in="SourceGraphic" in2="BackgroundImageFix" result="shape"/>
<feGaussianBlur stdDeviation="100" result="effect1_foregroundBlur_104_45"/>
</filter>
<filter id="filter2_f_104_45" x="-6" y="-289" width="591" height="591" filterUnits="userSpaceOnUse" color-interpolation-filters="sRGB">
<feFlood flood-opacity="0" result="BackgroundImageFix"/>
<feBlend mode="normal" in="SourceGraphic" in2="BackgroundImageFix" result="shape"/>
<feGaussianBlur stdDeviation="100" result="effect1_foregroundBlur_104_45"/>
</filter>
<filter id="filter3_f_104_45" x="-82" y="218" width="591" height="591" filterUnits="userSpaceOnUse" color-interpolation-filters="sRGB">
<feFlood flood-opacity="0" result="BackgroundImageFix"/>
<feBlend mode="normal" in="SourceGraphic" in2="BackgroundImageFix" result="shape"/>
<feGaussianBlur stdDeviation="100" result="effect1_foregroundBlur_104_45"/>
</filter>
<filter id="filter4_f_104_45" x="-179" y="-176" width="591" height="591" filterUnits="userSpaceOnUse" color-interpolation-filters="sRGB">
<feFlood flood-opacity="0" result="BackgroundImageFix"/>
<feBlend mode="normal" in="SourceGraphic" in2="BackgroundImageFix" result="shape"/>
<feGaussianBlur stdDeviation="100" result="effect1_foregroundBlur_104_45"/>
</filter>
<filter id="filter5_dd_104_45" x="20" y="-10.5879" width="471" height="532.975" filterUnits="userSpaceOnUse" color-interpolation-filters="sRGB">
<feFlood flood-opacity="0" result="BackgroundImageFix"/>
<feColorMatrix in="SourceAlpha" type="matrix" values="0 0 0 0 0 0 0 0 0 0 0 0 0 0 0 0 0 0 127 0" result="hardAlpha"/>
<feOffset/>
<feGaussianBlur stdDeviation="20"/>
<feComposite in2="hardAlpha" operator="out"/>
<feColorMatrix type="matrix" values="0 0 0 0 0 0 0 0 0 0 0 0 0 0 0 0 0 0 0.1 0"/>
<feBlend mode="color-burn" in2="BackgroundImageFix" result="effect1_dropShadow_104_45"/>
<feColorMatrix in="SourceAlpha" type="matrix" values="0 0 0 0 0 0 0 0 0 0 0 0 0 0 0 0 0 0 127 0" result="hardAlpha"/>
<feOffset dy="4"/>
<feGaussianBlur stdDeviation="5"/>
<feComposite in2="hardAlpha" operator="out"/>
<feColorMatrix type="matrix" values="0 0 0 0 0 0 0 0 0 0 0 0 0 0 0 0 0 0 0.35 0"/>
<feBlend mode="normal" in2="effect1_dropShadow_104_45" result="effect2_dropShadow_104_45"/>
<feBlend mode="normal" in="SourceGraphic" in2="effect2_dropShadow_104_45" result="shape"/>
</filter>
<filter id="filter6_f_104_45" x="139" y="144" width="591" height="591" filterUnits="userSpaceOnUse" color-interpolation-filters="sRGB">
<feFlood flood-opacity="0" result="BackgroundImageFix"/>
<feBlend mode="normal" in="SourceGraphic" in2="BackgroundImageFix" result="shape"/>
<feGaussianBlur stdDeviation="100" result="effect1_foregroundBlur_104_45"/>
</filter>
<filter id="filter7_f_104_45" x="-278" y="140" width="591" height="591" filterUnits="userSpaceOnUse" color-interpolation-filters="sRGB">
<feFlood flood-opacity="0" result="BackgroundImageFix"/>
<feBlend mode="normal" in="SourceGraphic" in2="BackgroundImageFix" result="shape"/>
<feGaussianBlur stdDeviation="100" result="effect1_foregroundBlur_104_45"/>
</filter>
<filter id="filter8_f_104_45" x="-6" y="-289" width="591" height="591" filterUnits="userSpaceOnUse" color-interpolation-filters="sRGB">
<feFlood flood-opacity="0" result="BackgroundImageFix"/>
<feBlend mode="normal" in="SourceGraphic" in2="BackgroundImageFix" result="shape"/>
<feGaussianBlur stdDeviation="100" result="effect1_foregroundBlur_104_45"/>
</filter>
<filter id="filter9_f_104_45" x="-82" y="218" width="591" height="591" filterUnits="userSpaceOnUse" color-interpolation-filters="sRGB">
<feFlood flood-opacity="0" result="BackgroundImageFix"/>
<feBlend mode="normal" in="SourceGraphic" in2="BackgroundImageFix" result="shape"/>
<feGaussianBlur stdDeviation="100" result="effect1_foregroundBlur_104_45"/>
</filter>
<filter id="filter10_f_104_45" x="-179" y="-176" width="591" height="591" filterUnits="userSpaceOnUse" color-interpolation-filters="sRGB">
<feFlood flood-opacity="0" result="BackgroundImageFix"/>
<feBlend mode="normal" in="SourceGraphic" in2="BackgroundImageFix" result="shape"/>
<feGaussianBlur stdDeviation="100" result="effect1_foregroundBlur_104_45"/>
</filter>
<filter id="filter11_di_104_45" x="152.104" y="135.879" width="206.791" height="243.241" filterUnits="userSpaceOnUse" color-interpolation-filters="sRGB">
<feFlood flood-opacity="0" result="BackgroundImageFix"/>
<feColorMatrix in="SourceAlpha" type="matrix" values="0 0 0 0 0 0 0 0 0 0 0 0 0 0 0 0 0 0 127 0" result="hardAlpha"/>
<feOffset dy="2"/>
<feGaussianBlur stdDeviation="0.5"/>
<feComposite in2="hardAlpha" operator="out"/>
<feColorMatrix type="matrix" values="0 0 0 0 1 0 0 0 0 1 0 0 0 0 1 0 0 0 1 0"/>
<feBlend mode="normal" in2="BackgroundImageFix" result="effect1_dropShadow_104_45"/>
<feBlend mode="normal" in="SourceGraphic" in2="effect1_dropShadow_104_45" result="shape"/>
<feColorMatrix in="SourceAlpha" type="matrix" values="0 0 0 0 0 0 0 0 0 0 0 0 0 0 0 0 0 0 127 0" result="hardAlpha"/>
<feOffset dy="1"/>
<feGaussianBlur stdDeviation="1.5"/>
<feComposite in2="hardAlpha" operator="arithmetic" k2="-1" k3="1"/>
<feColorMatrix type="matrix" values="0 0 0 0 0 0 0 0 0 0 0 0 0 0 0 0 0 0 1 0"/>
<feBlend mode="normal" in2="shape" result="effect2_innerShadow_104_45"/>
</filter>
<filter id="filter12_di_104_45" x="87" y="59" width="337" height="397" filterUnits="userSpaceOnUse" color-interpolation-filters="sRGB">
<feFlood flood-opacity="0" result="BackgroundImageFix"/>
<feColorMatrix in="SourceAlpha" type="matrix" values="0 0 0 0 0 0 0 0 0 0 0 0 0 0 0 0 0 0 127 0" result="hardAlpha"/>
<feOffset dy="2"/>
<feGaussianBlur stdDeviation="0.5"/>
<feComposite in2="hardAlpha" operator="out"/>
<feColorMatrix type="matrix" values="0 0 0 0 1 0 0 0 0 1 0 0 0 0 1 0 0 0 1 0"/>
<feBlend mode="normal" in2="BackgroundImageFix" result="effect1_dropShadow_104_45"/>
<feBlend mode="normal" in="SourceGraphic" in2="effect1_dropShadow_104_45" result="shape"/>
<feColorMatrix in="SourceAlpha" type="matrix" values="0 0 0 0 0 0 0 0 0 0 0 0 0 0 0 0 0 0 127 0" result="hardAlpha"/>
<feOffset dy="1"/>
<feGaussianBlur stdDeviation="1.5"/>
<feComposite in2="hardAlpha" operator="arithmetic" k2="-1" k3="1"/>
<feColorMatrix type="matrix" values="0 0 0 0 0 0 0 0 0 0 0 0 0 0 0 0 0 0 1 0"/>
<feBlend mode="normal" in2="shape" result="effect2_innerShadow_104_45"/>
</filter>
<filter id="filter13_f_104_45" x="-64" y="-176" width="657" height="657" filterUnits="userSpaceOnUse" color-interpolation-filters="sRGB">
<feFlood flood-opacity="0" result="BackgroundImageFix"/>
<feBlend mode="normal" in="SourceGraphic" in2="BackgroundImageFix" result="shape"/>
<feGaussianBlur stdDeviation="100" result="effect1_foregroundBlur_104_45"/>
</filter>
<linearGradient id="paint0_linear_104_45" x1="412.674" y1="-86" x2="412.674" y2="69" gradientUnits="userSpaceOnUse">
<stop stop-color="white" stop-opacity="0"/>
<stop offset="1" stop-color="white"/>
</linearGradient>
<linearGradient id="paint1_linear_104_45" x1="341.849" y1="24" x2="341.849" y2="179" gradientUnits="userSpaceOnUse">
<stop stop-color="white" stop-opacity="0"/>
<stop offset="1" stop-color="white"/>
</linearGradient>
<radialGradient id="paint2_radial_104_45" cx="0" cy="0" r="1" gradientUnits="userSpaceOnUse" gradientTransform="translate(255.5 256) rotate(90) scale(425 358.136)">
<stop offset="0.213542" stop-opacity="0"/>
<stop offset="1"/>
</radialGradient>
<linearGradient id="paint3_linear_104_45" x1="255.5" y1="24" x2="255.5" y2="488" gradientUnits="userSpaceOnUse">
<stop stop-opacity="0.85"/>
<stop offset="1"/>
</linearGradient>
<clipPath id="clip0_104_45">
<rect width="512" height="512" fill="white"/>
</clipPath>
</defs>
</svg>
